<svg width="16" height="16" viewBox="0 0 16 16" fill="none" xmlns="http://www.w3.org/2000/svg">
<g id="akar-icons:twitter-fill">
<path id="Vector" d="M13.2269 2.90715C12.2394 2.42215 11.1946 2.07754 10.1202 1.88242C9.9864 2.13637 9.83005 2.47792 9.72223 2.74965C8.56387 2.56683 7.41617 2.56683 6.27911 2.74965C6.17134 2.47798 6.01146 2.13637 5.8764 1.88242C4.80099 2.07763 3.75532 2.42312 2.76729 2.90968C0.80117 6.02819 0.26817 9.06916 0.53464 12.0671C1.8387 13.0892 3.10246 13.7102 4.34493 14.1165C4.65372 13.6708 4.92668 13.1989 5.16099 12.7057C4.71489 12.5275 4.28483 12.3078 3.87593 12.0493C3.98354 11.9656 4.08861 11.8784 4.19099 11.7877C6.66876 13.0041 9.36099 13.0041 11.8092 11.7877C11.9121 11.8778 12.0171 11.965 12.1242 12.0493C11.7147 12.3085 11.2838 12.5286 10.8368 12.707C11.0725 13.2022 11.3449 13.6745 11.6529 14.1177C12.8965 13.7115 14.1615 13.0905 15.4655 12.0671C15.7782 8.59177 14.9314 5.57865 13.2269 2.90709V2.90715ZM5.49858 10.2234C4.75476 10.2234 4.14476 9.49456 4.14476 8.60702C4.14476 7.71949 4.74176 6.98939 5.49858 6.98939C6.25546 6.98939 6.8654 7.71819 6.8524 8.60702C6.85358 9.49456 6.25546 10.2234 5.49858 10.2234ZM10.5016 10.2234C9.75775 10.2234 9.14781 9.49456 9.14781 8.60702C9.14781 7.71949 9.74475 6.98939 10.5016 6.98939C11.2585 6.98939 11.8684 7.71819 11.8554 8.60702C11.8554 9.49456 11.2585 10.2234 10.5016 10.2234Z" fill="white"/>
</g>
</svg>
